<svg width="800" height="1000" viewBox="0 0 800 1000" fill="none" xmlns="http://www.w3.org/2000/svg">
  <rect width="800" height="1000" rx="48" fill="#121212"/>
  <circle cx="580" cy="180" r="140" fill="#232323"/>
  <rect x="120" y="120" width="280" height="560" rx="140" fill="#1B1B1B"/>
  <rect x="230" y="180" width="180" height="180" rx="90" fill="#2A2A2A"/>
  <rect x="160" y="380" width="230" height="250" rx="110" fill="#262626"/>
  <rect x="420" y="420" width="220" height="280" rx="28" fill="#1E1E1E"/>
  <rect x="450" y="450" width="160" height="18" rx="9" fill="#525252"/>
  <rect x="450" y="490" width="120" height="18" rx="9" fill="#404040"/>
  <rect x="450" y="560" width="140" height="90" rx="18" fill="#2E2E2E"/>
  <path d="M540 120L620 240L460 240L540 120Z" fill="#383838"/>
  <rect x="110" y="760" width="580" height="70" rx="35" fill="#1C1C1C"/>
  <rect x="150" y="787" width="180" height="14" rx="7" fill="#505050"/>
  <rect x="360" y="787" width="210" height="14" rx="7" fill="#3B3B3B"/>
</svg>
